<svg width="114" height="24" viewBox="0 0 114 24" fill="none" xmlns="http://www.w3.org/2000/svg">
<path d="M14.7771 0.798584C13.6037 0.798584 12.6724 1.81645 12.637 3.04807C12.6354 3.06107 12.6346 3.07416 12.6347 3.08726V3.09969V3.10017C12.6346 3.10677 12.6337 3.11315 12.6337 3.11976C12.6335 3.12997 12.6338 3.14017 12.6347 3.15035L12.6318 4.63375C12.6316 4.65591 12.6339 4.67803 12.6385 4.6997C12.6385 4.70018 12.6385 4.70066 12.6385 4.70114C12.6599 5.38278 12.9051 6.00829 13.3013 6.48944C12.886 6.98699 12.6351 7.64115 12.6275 8.35517C12.6255 8.36974 12.6245 8.38443 12.6246 8.39914L12.6146 13.6949C12.6146 13.6955 12.6146 13.6961 12.6146 13.6968C12.6146 13.6974 12.6146 13.698 12.6146 13.6987V13.7388C12.6145 13.7564 12.6159 13.774 12.6189 13.7914C12.6189 13.792 12.6189 13.7927 12.6189 13.7933C12.6331 14.5803 12.9401 15.2948 13.4399 15.8029C12.923 16.3252 12.608 17.0696 12.6084 17.8789V17.8794C12.6074 17.8892 12.607 17.8991 12.607 17.909L12.5998 21.6754C12.5998 21.6766 12.5998 21.6777 12.5998 21.6788C12.5998 21.6793 12.5998 21.6797 12.5998 21.6802V21.7185C12.5996 21.7369 12.601 21.7553 12.6041 21.7734C12.6503 22.9947 13.5771 24 14.7432 24C15.4741 24 16.1108 23.6041 16.4966 23.0088C16.6171 23.0661 16.7412 23.117 16.8727 23.1536C18.1924 23.5204 19.5312 22.6336 19.8562 21.2272C19.8693 21.1702 19.8781 21.1132 19.8877 21.0561C21.0687 21.5016 22.4256 20.9913 23.0767 19.7911C23.5947 18.8362 23.5542 17.6969 23.058 16.8081C23.3985 16.5029 23.6896 16.1221 23.9073 15.675C24.7252 13.9952 24.2539 11.9428 22.8468 10.8721C23.0196 10.4929 23.1206 10.0697 23.1206 9.62047C23.1206 8.23697 22.1936 7.06473 20.9572 6.83326C21.4739 5.50163 21.1056 3.91906 19.977 3.03012C19.3226 2.51473 18.5299 2.34162 17.7844 2.47527C17.476 2.53055 17.177 2.64109 16.8979 2.79881C16.7532 1.68236 15.87 0.798805 14.777 0.798805L14.7771 0.798584ZM12.1428 0.802885C11.4081 0.809179 10.6757 0.885187 9.95544 1.02989L9.95688 1.03084L9.95735 1.03132C9.96671 1.05063 9.97579 1.07006 9.9846 1.08962L9.99081 1.10492C10.2218 1.65922 10.2235 2.28255 9.99533 2.83806C9.76721 3.39357 9.32797 3.83585 8.77406 4.06781C8.22024 4.2996 7.59709 4.30223 7.04134 4.0751C6.4856 3.84798 6.04265 3.40966 5.8097 2.85633C5.79932 2.82975 5.78944 2.80298 5.78007 2.77604C4.53239 3.61871 3.46051 4.69599 2.62412 5.94789C3.11107 6.18695 3.49614 6.59272 3.70942 7.0915L3.71611 7.10728C3.94698 7.66153 3.94853 8.28473 3.72041 8.84012C3.4923 9.39551 3.05315 9.83771 2.49936 10.0697C1.98758 10.2832 1.41528 10.3018 0.890751 10.1218C0.585724 11.6327 0.584586 13.1892 0.887406 14.7006C0.911259 14.6888 0.935317 14.6775 0.959568 14.6666C1.51251 14.4328 2.13563 14.4279 2.6922 14.653C3.24877 14.878 3.69333 15.3147 3.92834 15.8671L3.93503 15.8829C4.16574 16.4371 4.16721 17.0602 3.93911 17.6154C3.711 18.1707 3.27195 18.6128 2.71828 18.8448C2.68888 18.8561 2.65924 18.8668 2.62939 18.8768C3.48442 20.1474 4.58235 21.2363 5.85997 22.0807C6.09171 21.547 6.51983 21.1228 7.05568 20.896C7.60868 20.662 8.23192 20.657 8.78861 20.8821C9.34529 21.1072 9.78993 21.5439 10.0249 22.0965L10.0316 22.1123C10.2541 22.649 10.262 23.2507 10.0536 23.793C10.7425 23.9234 11.4419 23.991 12.143 23.9952V17.1489C11.2292 17.1261 10.3414 16.8403 9.58588 16.3257C8.8304 15.8112 8.23933 15.0896 7.88352 14.2476C7.39493 13.0873 7.38673 11.7805 7.86071 10.614C8.33468 9.44763 9.25211 8.51694 10.4116 8.02628C10.9605 7.79578 11.5479 7.67046 12.143 7.65685V0.802726L12.1428 0.802885ZM14.7771 1.41029C15.6108 1.41029 16.3092 2.15732 16.3092 3.11974C16.3088 3.15485 16.3145 3.18977 16.326 3.22297C16.1602 3.38062 16.0073 3.55828 15.8748 3.76061C15.8522 3.79421 15.8365 3.83196 15.8287 3.87167C15.8208 3.91138 15.8208 3.95226 15.8289 3.99194C15.8369 4.03162 15.8527 4.06931 15.8754 4.10282C15.8982 4.13634 15.9273 4.16501 15.9612 4.18718C15.995 4.20935 16.033 4.22458 16.0728 4.23198C16.1126 4.23938 16.1535 4.2388 16.193 4.23028C16.2326 4.22176 16.2701 4.20547 16.3033 4.18236C16.3366 4.15924 16.3649 4.12975 16.3866 4.09561C17.1433 2.94009 18.5563 2.68926 19.5986 3.51018C20.641 4.33112 20.8886 5.95752 20.132 7.11317C19.7018 7.77015 19.0556 8.12727 18.39 8.16886C18.3233 8.17304 18.2563 8.17011 18.1893 8.16791C18.1741 7.45702 17.8975 6.75556 17.3654 6.24387C17.6657 5.78661 17.8453 5.23129 17.851 4.63382C17.8517 4.59346 17.8444 4.55336 17.8295 4.51583C17.8147 4.4783 17.7926 4.44409 17.7644 4.41515C17.7363 4.38621 17.7027 4.36313 17.6656 4.34724C17.6285 4.33135 17.5886 4.32295 17.5482 4.32254C17.5079 4.32213 17.4678 4.32971 17.4304 4.34485C17.393 4.35999 17.3589 4.38238 17.3302 4.41074C17.3015 4.4391 17.2787 4.47286 17.2631 4.51008C17.2474 4.5473 17.2394 4.58724 17.2392 4.62761C17.2275 5.87166 16.3125 6.83648 15.222 6.82405C14.1315 6.81164 13.2337 5.82532 13.2454 4.58126C13.2456 4.57106 13.2453 4.56085 13.2445 4.55068C13.2442 4.5486 13.2439 4.54653 13.2435 4.54447L13.2459 3.24935L13.2464 3.09929C13.2564 2.14695 13.9494 1.41029 14.7771 1.41029ZM16.9726 6.71727C17.7095 7.46051 17.7825 8.74562 17.1179 9.58327C17.065 9.64985 17.0096 9.71145 16.9516 9.76822C16.9252 9.79399 16.8966 9.81519 16.8694 9.83895C16.8481 9.80864 16.8287 9.77698 16.8063 9.74767C16.4065 9.22524 15.8221 8.86663 15.1427 8.80047C15.1327 8.79934 15.1227 8.7987 15.1126 8.79856C15.0332 8.79729 14.9563 8.82698 14.8984 8.88133C14.8405 8.93569 14.806 9.01046 14.8022 9.08982C14.7984 9.16917 14.8256 9.24689 14.8781 9.30652C14.9306 9.36615 15.0042 9.40301 15.0834 9.40932C16.082 9.50655 16.8457 10.4864 16.7532 11.6287C16.7388 11.8073 16.7042 11.9778 16.6524 12.1381C16.6391 12.1766 16.6336 12.2173 16.6363 12.2579C16.6389 12.2985 16.6496 12.3382 16.6678 12.3746C16.686 12.4111 16.7113 12.4435 16.7421 12.47C16.773 12.4965 16.8088 12.5166 16.8476 12.5291C16.8863 12.5416 16.9271 12.5463 16.9677 12.5428C17.0082 12.5393 17.0477 12.5278 17.0837 12.5088C17.1197 12.4899 17.1516 12.464 17.1775 12.4326C17.2034 12.4012 17.2228 12.3649 17.2345 12.3259C17.3008 12.1206 17.3448 11.9035 17.363 11.6779C17.3999 11.2226 17.3272 10.7815 17.1685 10.3866C17.3234 10.2659 17.4679 10.1255 17.5967 9.96321C17.8762 9.61101 18.0557 9.20319 18.1386 8.77993C18.8517 8.81112 19.5631 8.55853 20.1234 8.0564C20.1718 8.01301 20.2188 7.96773 20.2648 7.92067C20.403 7.77949 20.5303 7.62189 20.6438 7.4485C20.6523 7.43556 20.6589 7.42186 20.6672 7.40884C21.687 7.49649 22.509 8.43571 22.509 9.62008C22.509 9.93989 22.4485 10.2425 22.3399 10.5157C22.3356 10.5263 22.3299 10.5358 22.3255 10.5463C21.9585 10.3597 21.574 10.2452 21.1876 10.207C20.8133 10.1699 20.4391 10.2036 20.0794 10.2968C19.963 9.9714 19.7437 9.68541 19.4337 9.49918C19.3813 9.46678 19.3204 9.45095 19.2588 9.45378C19.1929 9.45686 19.1298 9.48117 19.0788 9.52308C19.0279 9.56498 18.9918 9.62225 18.9761 9.68631C18.9603 9.75038 18.9657 9.81783 18.9914 9.87858C19.0171 9.93934 19.0618 9.99015 19.1188 10.0234C19.5222 10.2658 19.6865 10.856 19.4543 11.3209C19.418 11.3936 19.375 11.458 19.3272 11.514C19.2997 11.5443 19.2786 11.5799 19.2651 11.6185C19.2516 11.6571 19.246 11.6981 19.2486 11.7389C19.2512 11.7797 19.262 11.8196 19.2803 11.8562C19.2986 11.8928 19.3241 11.9254 19.3552 11.952C19.3863 11.9785 19.4224 11.9986 19.4615 12.011C19.5005 12.0233 19.5416 12.0277 19.5823 12.0239C19.6231 12.0201 19.6626 12.0082 19.6987 11.9888C19.7347 11.9694 19.7665 11.943 19.7922 11.9111C19.8729 11.8167 19.9433 11.7108 20.0015 11.5943C20.1113 11.3745 20.1663 11.1386 20.1735 10.9047C20.8298 10.7172 21.543 10.7849 22.1931 11.1656C23.5664 11.9698 24.102 13.8774 23.3573 15.407C22.9882 16.1651 22.3834 16.6785 21.7047 16.91C21.3993 17.0142 21.0967 16.9863 20.7714 16.8163C20.446 16.6463 20.1057 16.3236 19.7983 15.8433C19.7968 15.8409 19.7952 15.8385 19.7936 15.8361C20.2223 15.4969 20.5086 14.9595 20.5338 14.3537C20.5361 14.3128 20.5301 14.272 20.5163 14.2335C20.5025 14.195 20.4811 14.1597 20.4534 14.1296C20.4257 14.0995 20.3922 14.0753 20.355 14.0584C20.3177 14.0414 20.2775 14.0322 20.2366 14.0311C20.1556 14.0289 20.077 14.059 20.0181 14.1147C19.9592 14.1705 19.9249 14.2473 19.9226 14.3283C19.8912 15.0822 19.3258 15.6309 18.682 15.5986C18.5814 15.5935 18.4849 15.5746 18.3929 15.5436C18.3548 15.5308 18.3145 15.5256 18.2744 15.5284C18.2343 15.5311 18.1952 15.5418 18.1592 15.5596C18.1232 15.5775 18.0911 15.6023 18.0647 15.6326C18.0383 15.6629 18.0181 15.6981 18.0053 15.7362C17.9925 15.7743 17.9873 15.8146 17.9901 15.8546C17.9928 15.8947 18.0034 15.9339 18.0213 15.9699C18.0392 16.0059 18.064 16.038 18.0943 16.0644C18.1246 16.0908 18.1598 16.111 18.1979 16.1238C18.3418 16.1722 18.4941 16.2014 18.6514 16.2093C18.8633 16.22 19.0666 16.1886 19.2574 16.1257C19.2646 16.1422 19.2732 16.158 19.2832 16.173C19.6332 16.7199 20.039 17.1241 20.488 17.3587C20.937 17.5933 21.437 17.6478 21.9021 17.4892C22.1302 17.4113 22.3495 17.3054 22.5582 17.1776C22.9153 17.873 22.939 18.7615 22.5391 19.4987C21.9842 20.5217 20.8669 20.8803 19.9239 20.4058C19.8575 19.3027 19.1586 18.3151 18.1069 18.0139C18.19 17.5063 18.0869 16.9652 17.7801 16.5171C17.7517 16.4743 17.713 16.4394 17.6676 16.4155C17.6221 16.3916 17.5714 16.3796 17.5201 16.3804C17.4766 16.3811 17.4338 16.3911 17.3945 16.4096C17.3552 16.4282 17.3203 16.4549 17.2921 16.488C17.2639 16.5211 17.2432 16.5598 17.2311 16.6016C17.2191 16.6434 17.2161 16.6872 17.2224 16.7302C17.2238 16.7404 17.2257 16.7504 17.2281 16.7603C17.2372 16.797 17.2531 16.8317 17.2749 16.8626C17.6801 17.4543 17.5653 18.313 17.0355 18.7494C16.9526 18.8176 16.8658 18.8714 16.7765 18.9119C16.7383 18.9273 16.7036 18.9504 16.6746 18.9796C16.6455 19.0088 16.6226 19.0436 16.6073 19.0818C16.592 19.1201 16.5846 19.1611 16.5856 19.2023C16.5865 19.2435 16.5958 19.2841 16.6128 19.3216C16.6298 19.3591 16.6542 19.3928 16.6846 19.4207C16.7149 19.4486 16.7506 19.47 16.7895 19.4837C16.8283 19.4975 16.8695 19.5032 16.9107 19.5006C16.9518 19.498 16.992 19.4871 17.0288 19.4686C17.1675 19.4057 17.3009 19.3233 17.4245 19.2215C17.6368 19.0467 17.8014 18.8318 17.9196 18.5955C17.9215 18.5961 17.9234 18.5968 17.9253 18.5974C18.8999 18.8683 19.5161 19.9794 19.2596 21.0893C19.0673 21.9215 18.4612 22.4871 17.759 22.6037C17.7005 22.6135 17.6414 22.6204 17.5817 22.6238C17.4624 22.6306 17.3407 22.6241 17.219 22.6042C17.1581 22.5943 17.0973 22.581 17.0364 22.5641C16.9398 22.5372 16.8485 22.4997 16.7597 22.4575C16.8408 22.2128 16.8868 21.951 16.8868 21.6785C16.8878 21.5986 16.8575 21.5215 16.8023 21.4637C16.7472 21.4058 16.6716 21.3719 16.5917 21.3691C16.5119 21.3663 16.4341 21.3948 16.375 21.4486C16.3159 21.5024 16.2803 21.5772 16.2756 21.657C16.2752 21.6642 16.275 21.6714 16.2751 21.6785C16.2751 22.5808 15.661 23.2938 14.8973 23.3794C14.8464 23.3851 14.7951 23.388 14.743 23.388C13.9097 23.388 13.212 22.6417 13.2113 21.68C13.2113 21.6795 13.2113 21.679 13.2113 21.6785L13.2185 18.0212C13.2194 18.0086 13.2196 17.996 13.2189 17.9835C13.1662 16.7601 14.0048 15.7507 15.0703 15.6656C15.1871 15.9818 15.3811 16.2703 15.6524 16.4938C15.776 16.5956 15.9089 16.6785 16.0476 16.7414C16.0843 16.7587 16.1241 16.7685 16.1646 16.7703C16.2052 16.7721 16.2456 16.7658 16.2837 16.7518C16.3218 16.7378 16.3567 16.7164 16.3864 16.6888C16.4161 16.6611 16.4401 16.6279 16.4568 16.5909C16.4735 16.554 16.4827 16.514 16.4839 16.4735C16.4851 16.4329 16.4781 16.3926 16.4635 16.3547C16.449 16.3168 16.427 16.2823 16.3989 16.253C16.3708 16.2237 16.3372 16.2003 16.2999 16.1842C16.2107 16.1437 16.1238 16.0899 16.0409 16.0217C15.5111 15.5853 15.3963 14.7266 15.8015 14.1349C15.834 14.0888 15.8532 14.0346 15.8568 13.9782C15.8604 13.9219 15.8484 13.8656 15.822 13.8157C15.7957 13.7658 15.756 13.7241 15.7074 13.6954C15.6588 13.6666 15.6032 13.6518 15.5468 13.6527C15.4972 13.6535 15.4485 13.6664 15.4049 13.6902C15.3614 13.714 15.3243 13.7481 15.2968 13.7894C15.0343 14.1727 14.9208 14.6242 14.9451 15.0644C14.5738 15.1058 14.2286 15.2292 13.9233 15.4186C13.4937 15.0076 13.217 14.3943 13.2261 13.7048L13.2309 11.0879L13.2361 8.43601C13.2366 8.42789 13.2368 8.41976 13.2366 8.41164C13.2311 7.83552 13.4237 7.31236 13.7389 6.91724C14.1551 7.23727 14.6621 7.42947 15.2146 7.43576C15.8926 7.4435 16.5066 7.16795 16.9723 6.71748L16.9726 6.71727Z" fill="url(#paint0_linear_1629_107)"/>
<path d="M34.1108 12.9347C33.5888 12.7226 33.1035 12.4861 32.6548 12.2251C32.2062 11.964 31.8188 11.65 31.4926 11.283C31.1663 10.9159 30.9135 10.4836 30.734 9.98608C30.5546 9.48854 30.4648 8.89718 30.4648 8.21203C30.4648 7.36374 30.6117 6.61747 30.9053 5.97306C31.1989 5.32865 31.6108 4.78628 32.141 4.34583C32.6712 3.90538 33.3115 3.57095 34.0619 3.34258C34.8123 3.1142 35.6442 3 36.5578 3C37.3082 3 38.0749 3.0775 38.8579 3.23246C39.641 3.38743 40.579 3.65251 41.6719 4.0277L40.008 7.013C38.9477 6.50728 37.8302 6.25444 36.6557 6.25444C36.4273 6.25444 36.1907 6.27891 35.946 6.32785C35.7014 6.37679 35.4811 6.46243 35.2854 6.58478C35.0896 6.70713 34.9265 6.87433 34.796 7.08641C34.6655 7.29848 34.6002 7.5758 34.6002 7.91837C34.6002 8.19569 34.6532 8.42406 34.7593 8.6035C34.8653 8.78293 34.9999 8.9379 35.163 9.0684C35.3262 9.19889 35.5138 9.30901 35.7258 9.39874C35.9379 9.48847 36.15 9.57411 36.3621 9.65567L37.8058 10.2185C38.4257 10.4632 38.9926 10.7201 39.5064 10.9893C40.0203 11.2584 40.4567 11.5847 40.8156 11.968C41.1745 12.3514 41.4518 12.8204 41.6475 13.3751C41.8433 13.9297 41.9412 14.623 41.9412 15.455C41.9412 16.2869 41.7903 17.0455 41.4885 17.7306C41.1867 18.4158 40.7462 18.999 40.1671 19.4802C39.588 19.9614 38.8743 20.3367 38.026 20.6058C37.1778 20.875 36.2071 21.0096 35.1141 21.0096C34.6084 21.0096 34.1435 20.9933 33.7194 20.9606C33.2952 20.928 32.8833 20.8709 32.4836 20.7894C32.084 20.7078 31.6843 20.6099 31.2847 20.4957C30.885 20.3815 30.4568 20.2347 30 20.0553L30.832 16.6295C31.5008 16.809 32.1574 16.968 32.8018 17.1067C33.4462 17.2454 34.1027 17.3147 34.7716 17.3147C35.6688 17.3147 36.3539 17.1964 36.827 16.9599C37.3002 16.7233 37.5774 16.2706 37.659 15.6018C37.6916 15.2592 37.6508 14.9738 37.5366 14.7454C37.4224 14.517 37.2593 14.3253 37.0472 14.1704C36.8351 14.0154 36.5986 13.889 36.3375 13.7911L35.5545 13.4975L34.1108 12.9347ZM43.9965 7.96734L47.7159 7.96729V14.623C47.7159 15.194 47.7648 15.6711 47.8627 16.0545C47.9606 16.4379 48.1074 16.7397 48.3032 16.9599C48.4989 17.1801 48.7395 17.3351 49.025 17.4248C49.3105 17.5145 49.649 17.5594 50.0405 17.5594C50.5136 17.5594 50.9377 17.5349 51.3129 17.486L51.264 17.0455V7.96729H54.9834V20.0553C54.3798 20.2674 53.658 20.455 52.8178 20.6181C51.9777 20.7813 51.1172 20.8628 50.2363 20.8628C49.4043 20.8628 48.609 20.7976 47.8505 20.6671C47.0919 20.5366 46.4272 20.2592 45.8562 19.8351C45.2852 19.411 44.8326 18.7952 44.4981 17.9877C44.1637 17.1802 43.9965 16.0913 43.9965 14.721V7.96734ZM58.0666 11.0016H56.0356L57.6506 7.96734H61.1987L61.4923 9.33764C61.8675 8.9135 62.3283 8.56684 62.8748 8.29768C63.4213 8.02851 64.0534 7.89393 64.7712 7.89393C66.4514 7.89393 67.6506 8.50567 68.3683 9.72915C68.7761 9.1582 69.2574 8.7096 69.812 8.38332C70.3666 8.05704 71.0599 7.89393 71.8919 7.89393C73.3601 7.89393 74.4326 8.28136 75.1097 9.05624C75.7867 9.83112 76.1252 11.0668 76.1252 12.7634V20.7405H72.4058V13.4241C72.4058 12.641 72.2793 12.0864 72.0265 11.7601C71.7736 11.4338 71.3373 11.2707 70.7174 11.2707C70.4563 11.2707 70.2157 11.2993 69.9955 11.3564C69.7753 11.4135 69.5877 11.5195 69.4327 11.6745C69.2777 11.8294 69.1554 12.0415 69.0657 12.3107C68.9759 12.5798 68.9311 12.9347 68.9311 13.3751V20.7405H65.2117V13.3751C65.2117 12.5595 65.069 12.0048 64.7835 11.7112C64.498 11.4175 64.1024 11.2707 63.5967 11.2707C63.352 11.2707 63.1236 11.2952 62.9115 11.3441C62.6994 11.3931 62.5078 11.4909 62.3365 11.6378C62.1652 11.7846 62.0306 11.9967 61.9327 12.274C61.8349 12.5513 61.7859 12.9183 61.7859 13.3751V20.7405H58.0665L58.0666 11.0016ZM83.515 17.535H89.1185V20.7405H78.7679V17.9754L79.1716 17.5227L80.1993 16.3727L81.5819 14.8311L83.0501 13.2038L84.3225 11.7846L85.1545 10.8792L84.7629 11.0016H81.9245V12.3474L78.8658 11.4176V7.96734H88.9717V10.8548L83.515 17.535Z" fill="black"/>
<path d="M95.9845 21H92L98.2242 4H101.949L108.15 21H104.095L102.869 17.4162H97.234L95.9845 21ZM99.5917 10.6622L98.3421 14.2919H101.784L100.535 10.6622C100.346 10.0878 100.134 9.42162 100.063 9.00811C99.9925 9.39865 99.8039 10.0419 99.5917 10.6622Z" fill="url(#paint1_linear_1629_107)"/>
<path d="M114 4V21H110.181V4H114Z" fill="url(#paint2_linear_1629_107)"/>
<defs>
<linearGradient id="paint0_linear_1629_107" x1="0.661133" y1="0.798584" x2="24.3085" y2="0.798584" gradientUnits="userSpaceOnUse">
<stop stop-color="#EF4136"/>
<stop offset="1" stop-color="#FBB040"/>
</linearGradient>
<linearGradient id="paint1_linear_1629_107" x1="97.4257" y1="8.76441" x2="112.43" y2="23.1363" gradientUnits="userSpaceOnUse">
<stop stop-color="#EF4136"/>
<stop offset="1" stop-color="#FBB040"/>
</linearGradient>
<linearGradient id="paint2_linear_1629_107" x1="97.4257" y1="8.76441" x2="112.43" y2="23.1363" gradientUnits="userSpaceOnUse">
<stop stop-color="#EF4136"/>
<stop offset="1" stop-color="#FBB040"/>
</linearGradient>
</defs>
</svg>
